<mxfile host="app.diagrams.net" modified="2024-06-05T09:27:59.608Z" agent="Mozilla/5.0 (Windows NT 10.0; Win64; x64) AppleWebKit/537.36 (KHTML, like Gecko) Chrome/125.0.0.0 Safari/537.36" etag="FJjz11HrM7FkCulOwrXw" version="24.4.13" type="github">
  <diagram name="Page-1" id="edf60f1a-56cd-e834-aa8a-f176f3a09ee4">
    <mxGraphModel dx="1434" dy="780" grid="1" gridSize="10" guides="1" tooltips="1" connect="1" arrows="1" fold="1" page="1" pageScale="1" pageWidth="1100" pageHeight="850" background="none" math="0" shadow="0">
      <root>
        <mxCell id="0" />
        <mxCell id="1" parent="0" />
        <mxCell id="60e70716793133e9-4" value="&lt;font face=&quot;Tahoma&quot; style=&quot;font-size: 12px;&quot;&gt;Ingatlanüzemeltetés&lt;/font&gt;&lt;div&gt;&lt;font face=&quot;BtbKhpzwE4qU60kqDjoo&quot; size=&quot;3&quot;&gt;Követelés kezelés&lt;/font&gt;&lt;/div&gt;" style="rounded=0;whiteSpace=wrap;html=1;shadow=1;labelBackgroundColor=none;strokeWidth=1;fontFamily=Verdana;fontSize=8;align=center;" parent="1" vertex="1">
          <mxGeometry x="500" y="20" width="120" height="60" as="geometry" />
        </mxCell>
        <mxCell id="mCzXiH6NWdjLSZmSII8E-2" value="" style="endArrow=classic;html=1;rounded=0;exitX=0.5;exitY=1;exitDx=0;exitDy=0;labelBackgroundColor=none;fontColor=default;" edge="1" parent="1" source="60e70716793133e9-4">
          <mxGeometry width="50" height="50" relative="1" as="geometry">
            <mxPoint x="80" y="160" as="sourcePoint" />
            <mxPoint x="560" y="120" as="targetPoint" />
          </mxGeometry>
        </mxCell>
        <mxCell id="mCzXiH6NWdjLSZmSII8E-3" value="&lt;font face=&quot;Tahoma&quot;&gt;Bérbe adó&amp;nbsp;&lt;/font&gt;&lt;div&gt;&lt;font face=&quot;Tahoma&quot;&gt;select eo_cores&lt;/font&gt;&lt;/div&gt;" style="rounded=0;whiteSpace=wrap;html=1;labelBackgroundColor=none;" vertex="1" parent="1">
          <mxGeometry x="500" y="120" width="120" height="60" as="geometry" />
        </mxCell>
        <mxCell id="mCzXiH6NWdjLSZmSII8E-4" value="Bérbe vevő&lt;div&gt;select par_partners&lt;/div&gt;" style="rounded=0;whiteSpace=wrap;html=1;labelBackgroundColor=none;" vertex="1" parent="1">
          <mxGeometry x="500" y="220" width="120" height="60" as="geometry" />
        </mxCell>
        <mxCell id="mCzXiH6NWdjLSZmSII8E-5" value="" style="endArrow=classic;html=1;rounded=0;exitX=0.5;exitY=1;exitDx=0;exitDy=0;entryX=0.5;entryY=0;entryDx=0;entryDy=0;labelBackgroundColor=none;fontColor=default;" edge="1" parent="1" source="mCzXiH6NWdjLSZmSII8E-3" target="mCzXiH6NWdjLSZmSII8E-4">
          <mxGeometry width="50" height="50" relative="1" as="geometry">
            <mxPoint x="570" y="330" as="sourcePoint" />
            <mxPoint x="620" y="280" as="targetPoint" />
          </mxGeometry>
        </mxCell>
        <mxCell id="mCzXiH6NWdjLSZmSII8E-7" value="" style="endArrow=classic;html=1;rounded=0;exitX=0.5;exitY=1;exitDx=0;exitDy=0;entryX=0.5;entryY=0;entryDx=0;entryDy=0;labelBackgroundColor=none;fontColor=default;" edge="1" parent="1">
          <mxGeometry width="50" height="50" relative="1" as="geometry">
            <mxPoint x="559.5" y="280" as="sourcePoint" />
            <mxPoint x="559.5" y="310" as="targetPoint" />
            <Array as="points">
              <mxPoint x="559.5" y="300" />
            </Array>
          </mxGeometry>
        </mxCell>
        <mxCell id="mCzXiH6NWdjLSZmSII8E-8" value="SUP adatbázis&lt;div&gt;kapcsolat&amp;nbsp;&lt;/div&gt;" style="rhombus;whiteSpace=wrap;html=1;rounded=0;labelBackgroundColor=none;" vertex="1" parent="1">
          <mxGeometry x="505" y="310" width="110" height="90" as="geometry" />
        </mxCell>
        <mxCell id="mCzXiH6NWdjLSZmSII8E-13" value="" style="edgeStyle=elbowEdgeStyle;elbow=horizontal;endArrow=classic;html=1;curved=0;rounded=0;endSize=8;startSize=8;exitX=1;exitY=0.5;exitDx=0;exitDy=0;entryX=0.5;entryY=1;entryDx=0;entryDy=0;labelBackgroundColor=none;fontColor=default;" edge="1" parent="1" source="mCzXiH6NWdjLSZmSII8E-8" target="mCzXiH6NWdjLSZmSII8E-15">
          <mxGeometry width="50" height="50" relative="1" as="geometry">
            <mxPoint x="620" y="440" as="sourcePoint" />
            <mxPoint x="700" y="360" as="targetPoint" />
            <Array as="points">
              <mxPoint x="700" y="400" />
            </Array>
          </mxGeometry>
        </mxCell>
        <mxCell id="mCzXiH6NWdjLSZmSII8E-14" value="Nem" style="edgeLabel;html=1;align=center;verticalAlign=middle;resizable=0;points=[];labelBackgroundColor=none;" vertex="1" connectable="0" parent="mCzXiH6NWdjLSZmSII8E-13">
          <mxGeometry x="-0.5" y="1" relative="1" as="geometry">
            <mxPoint y="11" as="offset" />
          </mxGeometry>
        </mxCell>
        <mxCell id="mCzXiH6NWdjLSZmSII8E-15" value="Nem lehetséges a kapcsolat" style="shape=process;whiteSpace=wrap;html=1;backgroundOutline=1;labelBackgroundColor=none;" vertex="1" parent="1">
          <mxGeometry x="640" y="290" width="120" height="30" as="geometry" />
        </mxCell>
        <mxCell id="mCzXiH6NWdjLSZmSII8E-16" value="" style="edgeStyle=elbowEdgeStyle;elbow=horizontal;endArrow=classic;html=1;curved=0;rounded=0;endSize=8;startSize=8;entryX=0.5;entryY=1;entryDx=0;entryDy=0;exitX=0.5;exitY=0;exitDx=0;exitDy=0;exitPerimeter=0;labelBackgroundColor=none;fontColor=default;" edge="1" parent="1" source="mCzXiH6NWdjLSZmSII8E-15">
          <mxGeometry width="50" height="50" relative="1" as="geometry">
            <mxPoint x="700" y="280" as="sourcePoint" />
            <mxPoint x="560" y="200" as="targetPoint" />
            <Array as="points">
              <mxPoint x="700" y="260" />
            </Array>
          </mxGeometry>
        </mxCell>
        <mxCell id="mCzXiH6NWdjLSZmSII8E-21" value="" style="edgeStyle=segmentEdgeStyle;endArrow=classic;html=1;curved=0;rounded=0;endSize=8;startSize=8;exitX=0;exitY=0.5;exitDx=0;exitDy=0;labelBackgroundColor=none;fontColor=default;" edge="1" parent="1" source="mCzXiH6NWdjLSZmSII8E-8">
          <mxGeometry width="50" height="50" relative="1" as="geometry">
            <mxPoint x="510" y="440" as="sourcePoint" />
            <mxPoint x="420" y="400" as="targetPoint" />
            <Array as="points">
              <mxPoint x="420" y="355" />
            </Array>
          </mxGeometry>
        </mxCell>
        <mxCell id="mCzXiH6NWdjLSZmSII8E-22" value="Igen" style="edgeLabel;html=1;align=center;verticalAlign=middle;resizable=0;points=[];labelBackgroundColor=none;" vertex="1" connectable="0" parent="mCzXiH6NWdjLSZmSII8E-21">
          <mxGeometry x="-0.12" relative="1" as="geometry">
            <mxPoint y="9" as="offset" />
          </mxGeometry>
        </mxCell>
        <mxCell id="mCzXiH6NWdjLSZmSII8E-23" value="JIRA RC" style="rounded=0;whiteSpace=wrap;html=1;labelBackgroundColor=none;" vertex="1" parent="1">
          <mxGeometry x="360" y="403" width="120" height="45" as="geometry" />
        </mxCell>
        <mxCell id="mCzXiH6NWdjLSZmSII8E-25" value="" style="endArrow=classic;html=1;rounded=0;exitX=0.5;exitY=1;exitDx=0;exitDy=0;entryX=0.5;entryY=0;entryDx=0;entryDy=0;labelBackgroundColor=none;fontColor=default;" edge="1" parent="1">
          <mxGeometry width="50" height="50" relative="1" as="geometry">
            <mxPoint x="419.5" y="448" as="sourcePoint" />
            <mxPoint x="419.5" y="478" as="targetPoint" />
            <Array as="points">
              <mxPoint x="419.5" y="468" />
            </Array>
          </mxGeometry>
        </mxCell>
        <mxCell id="mCzXiH6NWdjLSZmSII8E-26" value="311000 Vevői követelés egyenlege" style="rounded=0;whiteSpace=wrap;html=1;labelBackgroundColor=none;" vertex="1" parent="1">
          <mxGeometry x="360" y="480" width="120" height="45" as="geometry" />
        </mxCell>
        <mxCell id="mCzXiH6NWdjLSZmSII8E-27" value="479101 Bérlőtől kapott kaució&amp;nbsp;" style="rounded=0;whiteSpace=wrap;html=1;labelBackgroundColor=none;" vertex="1" parent="1">
          <mxGeometry x="360" y="560" width="120" height="45" as="geometry" />
        </mxCell>
        <mxCell id="mCzXiH6NWdjLSZmSII8E-28" value="" style="endArrow=classic;html=1;rounded=0;exitX=0.5;exitY=1;exitDx=0;exitDy=0;entryX=0.5;entryY=0;entryDx=0;entryDy=0;labelBackgroundColor=none;fontColor=default;" edge="1" parent="1">
          <mxGeometry width="50" height="50" relative="1" as="geometry">
            <mxPoint x="419.5" y="525" as="sourcePoint" />
            <mxPoint x="419.5" y="555" as="targetPoint" />
            <Array as="points">
              <mxPoint x="419.5" y="545" />
            </Array>
          </mxGeometry>
        </mxCell>
        <mxCell id="mCzXiH6NWdjLSZmSII8E-29" value="" style="endArrow=classic;html=1;rounded=0;exitX=0.5;exitY=1;exitDx=0;exitDy=0;entryX=0.5;entryY=0;entryDx=0;entryDy=0;labelBackgroundColor=none;fontColor=default;" edge="1" parent="1">
          <mxGeometry width="50" height="50" relative="1" as="geometry">
            <mxPoint x="419.5" y="605" as="sourcePoint" />
            <mxPoint x="420" y="638" as="targetPoint" />
            <Array as="points">
              <mxPoint x="419.5" y="625" />
            </Array>
          </mxGeometry>
        </mxCell>
        <mxCell id="mCzXiH6NWdjLSZmSII8E-31" value="Kamat BTK szerint" style="rhombus;whiteSpace=wrap;html=1;rounded=0;labelBackgroundColor=none;" vertex="1" parent="1">
          <mxGeometry x="365" y="640" width="110" height="90" as="geometry" />
        </mxCell>
        <mxCell id="mCzXiH6NWdjLSZmSII8E-34" value="" style="edgeStyle=elbowEdgeStyle;elbow=horizontal;endArrow=classic;html=1;curved=0;rounded=0;endSize=8;startSize=8;exitX=1;exitY=0.5;exitDx=0;exitDy=0;labelBackgroundColor=none;fontColor=default;" edge="1" parent="1">
          <mxGeometry width="50" height="50" relative="1" as="geometry">
            <mxPoint x="475" y="685" as="sourcePoint" />
            <mxPoint x="560" y="720" as="targetPoint" />
            <Array as="points">
              <mxPoint x="560" y="730" />
            </Array>
          </mxGeometry>
        </mxCell>
        <mxCell id="mCzXiH6NWdjLSZmSII8E-35" value="Nem" style="edgeLabel;html=1;align=center;verticalAlign=middle;resizable=0;points=[];labelBackgroundColor=none;" vertex="1" connectable="0" parent="mCzXiH6NWdjLSZmSII8E-34">
          <mxGeometry x="-0.5" y="1" relative="1" as="geometry">
            <mxPoint y="-13" as="offset" />
          </mxGeometry>
        </mxCell>
        <mxCell id="mCzXiH6NWdjLSZmSII8E-39" value="Kamat %" style="rounded=0;whiteSpace=wrap;html=1;labelBackgroundColor=none;" vertex="1" parent="1">
          <mxGeometry x="500" y="720" width="120" height="45" as="geometry" />
        </mxCell>
        <mxCell id="mCzXiH6NWdjLSZmSII8E-40" value="Feladat" style="rounded=0;whiteSpace=wrap;html=1;labelBackgroundColor=none;" vertex="1" parent="1">
          <mxGeometry x="360" y="790" width="120" height="45" as="geometry" />
        </mxCell>
        <mxCell id="mCzXiH6NWdjLSZmSII8E-41" value="" style="edgeStyle=elbowEdgeStyle;elbow=horizontal;endArrow=classic;html=1;curved=0;rounded=0;endSize=8;startSize=8;exitX=0.5;exitY=1;exitDx=0;exitDy=0;entryX=1;entryY=0.5;entryDx=0;entryDy=0;labelBackgroundColor=none;fontColor=default;" edge="1" parent="1" source="mCzXiH6NWdjLSZmSII8E-39" target="mCzXiH6NWdjLSZmSII8E-40">
          <mxGeometry width="50" height="50" relative="1" as="geometry">
            <mxPoint x="465" y="780" as="sourcePoint" />
            <mxPoint x="487" y="814" as="targetPoint" />
            <Array as="points">
              <mxPoint x="560" y="800" />
              <mxPoint x="550" y="825" />
            </Array>
          </mxGeometry>
        </mxCell>
        <mxCell id="mCzXiH6NWdjLSZmSII8E-45" value="" style="endArrow=classic;html=1;rounded=0;exitX=0.5;exitY=1;exitDx=0;exitDy=0;entryX=0.5;entryY=0;entryDx=0;entryDy=0;labelBackgroundColor=none;fontColor=default;" edge="1" parent="1" target="mCzXiH6NWdjLSZmSII8E-40">
          <mxGeometry width="50" height="50" relative="1" as="geometry">
            <mxPoint x="419.5" y="732" as="sourcePoint" />
            <mxPoint x="420" y="765" as="targetPoint" />
            <Array as="points" />
          </mxGeometry>
        </mxCell>
        <mxCell id="mCzXiH6NWdjLSZmSII8E-46" value="Igen" style="edgeLabel;html=1;align=center;verticalAlign=middle;resizable=0;points=[];labelBackgroundColor=none;" vertex="1" connectable="0" parent="mCzXiH6NWdjLSZmSII8E-45">
          <mxGeometry x="-0.1034" relative="1" as="geometry">
            <mxPoint x="16" as="offset" />
          </mxGeometry>
        </mxCell>
        <mxCell id="mCzXiH6NWdjLSZmSII8E-47" value="Van még feladat?" style="rhombus;whiteSpace=wrap;html=1;rounded=0;labelBackgroundColor=none;" vertex="1" parent="1">
          <mxGeometry x="365" y="870" width="110" height="90" as="geometry" />
        </mxCell>
        <mxCell id="mCzXiH6NWdjLSZmSII8E-49" value="" style="edgeStyle=elbowEdgeStyle;elbow=horizontal;endArrow=classic;html=1;curved=0;rounded=0;endSize=8;startSize=8;exitX=0;exitY=0.5;exitDx=0;exitDy=0;labelBackgroundColor=none;fontColor=default;" edge="1" parent="1" source="mCzXiH6NWdjLSZmSII8E-47">
          <mxGeometry width="50" height="50" relative="1" as="geometry">
            <mxPoint x="260" y="815" as="sourcePoint" />
            <mxPoint x="420" y="770" as="targetPoint" />
            <Array as="points">
              <mxPoint x="300" y="800" />
            </Array>
          </mxGeometry>
        </mxCell>
        <mxCell id="mCzXiH6NWdjLSZmSII8E-50" value="Igen" style="edgeLabel;html=1;align=center;verticalAlign=middle;resizable=0;points=[];labelBackgroundColor=none;" vertex="1" connectable="0" parent="mCzXiH6NWdjLSZmSII8E-49">
          <mxGeometry x="-0.0848" y="-3" relative="1" as="geometry">
            <mxPoint x="-19" as="offset" />
          </mxGeometry>
        </mxCell>
        <mxCell id="mCzXiH6NWdjLSZmSII8E-52" value="" style="endArrow=classic;html=1;rounded=0;exitX=0.5;exitY=1;exitDx=0;exitDy=0;entryX=0.5;entryY=0;entryDx=0;entryDy=0;labelBackgroundColor=none;fontColor=default;" edge="1" parent="1">
          <mxGeometry width="50" height="50" relative="1" as="geometry">
            <mxPoint x="419.5" y="835" as="sourcePoint" />
            <mxPoint x="420" y="868" as="targetPoint" />
            <Array as="points">
              <mxPoint x="419.5" y="855" />
            </Array>
          </mxGeometry>
        </mxCell>
        <mxCell id="mCzXiH6NWdjLSZmSII8E-53" value="" style="endArrow=classic;html=1;rounded=0;exitX=0.5;exitY=1;exitDx=0;exitDy=0;labelBackgroundColor=none;fontColor=default;" edge="1" parent="1">
          <mxGeometry width="50" height="50" relative="1" as="geometry">
            <mxPoint x="419.5" y="960" as="sourcePoint" />
            <mxPoint x="420" y="1000" as="targetPoint" />
            <Array as="points" />
          </mxGeometry>
        </mxCell>
        <mxCell id="mCzXiH6NWdjLSZmSII8E-54" value="Nem" style="edgeLabel;html=1;align=center;verticalAlign=middle;resizable=0;points=[];labelBackgroundColor=none;" vertex="1" connectable="0" parent="mCzXiH6NWdjLSZmSII8E-53">
          <mxGeometry x="-0.1034" relative="1" as="geometry">
            <mxPoint x="16" as="offset" />
          </mxGeometry>
        </mxCell>
        <mxCell id="mCzXiH6NWdjLSZmSII8E-56" value="Vége" style="ellipse;whiteSpace=wrap;html=1;labelBackgroundColor=none;" vertex="1" parent="1">
          <mxGeometry x="360" y="1240" width="120" height="50" as="geometry" />
        </mxCell>
        <mxCell id="mCzXiH6NWdjLSZmSII8E-58" value="Pénzügyes-Könyvelő" style="rounded=0;whiteSpace=wrap;html=1;labelBackgroundColor=none;" vertex="1" parent="1">
          <mxGeometry x="365" y="1000" width="120" height="45" as="geometry" />
        </mxCell>
        <mxCell id="mCzXiH6NWdjLSZmSII8E-59" value="" style="endArrow=classic;html=1;rounded=0;exitX=0.5;exitY=1;exitDx=0;exitDy=0;entryX=0.5;entryY=0;entryDx=0;entryDy=0;labelBackgroundColor=none;fontColor=default;" edge="1" parent="1">
          <mxGeometry width="50" height="50" relative="1" as="geometry">
            <mxPoint x="419.5" y="1045" as="sourcePoint" />
            <mxPoint x="420" y="1078" as="targetPoint" />
            <Array as="points">
              <mxPoint x="419.5" y="1065" />
            </Array>
          </mxGeometry>
        </mxCell>
        <mxCell id="mCzXiH6NWdjLSZmSII8E-60" value="Értesítés" style="rounded=0;whiteSpace=wrap;html=1;labelBackgroundColor=none;" vertex="1" parent="1">
          <mxGeometry x="365" y="1080" width="120" height="45" as="geometry" />
        </mxCell>
        <mxCell id="mCzXiH6NWdjLSZmSII8E-61" value="Státusz = Könyvelőre vár" style="rounded=0;whiteSpace=wrap;html=1;labelBackgroundColor=none;" vertex="1" parent="1">
          <mxGeometry x="360" y="1160" width="120" height="45" as="geometry" />
        </mxCell>
        <mxCell id="mCzXiH6NWdjLSZmSII8E-62" value="" style="endArrow=classic;html=1;rounded=0;exitX=0.5;exitY=1;exitDx=0;exitDy=0;entryX=0.5;entryY=0;entryDx=0;entryDy=0;labelBackgroundColor=none;fontColor=default;" edge="1" parent="1">
          <mxGeometry width="50" height="50" relative="1" as="geometry">
            <mxPoint x="419.5" y="1125" as="sourcePoint" />
            <mxPoint x="420" y="1158" as="targetPoint" />
            <Array as="points" />
          </mxGeometry>
        </mxCell>
        <mxCell id="mCzXiH6NWdjLSZmSII8E-64" value="" style="edgeStyle=none;orthogonalLoop=1;jettySize=auto;html=1;rounded=0;labelBackgroundColor=none;fontColor=default;" edge="1" parent="1">
          <mxGeometry width="100" relative="1" as="geometry">
            <mxPoint x="420" y="1210" as="sourcePoint" />
            <mxPoint x="420" y="1240" as="targetPoint" />
            <Array as="points" />
          </mxGeometry>
        </mxCell>
      </root>
    </mxGraphModel>
  </diagram>
</mxfile>
